<svg xmlns="http://www.w3.org/2000/svg" height="800" width="1200" xml:space="preserve" y="0" x="0" id="Layer_1" version="1.1" viewBox="-151.947 -64.125 1316.874 384.75" style="background-color: #611f69"><style id="style201" type="text/css">.st0{fill:#fff}.st1{fill:#e01e5a}.st2{fill:#36c5f0}.st3{fill:#2eb67d}.st4{fill:#ecb22e}</style><g transform="translate(-105.51 -247.5)" id="g239"><g id="g213"><path id="path203" d="M429.51 449.44l12.58-29.34c13.77 10.18 31.74 15.57 49.7 15.57 13.17 0 21.56-5.09 21.56-12.87-.3-21.56-79.34-4.79-79.94-58.98-.3-27.54 24.25-48.8 58.99-48.8 20.66 0 41.32 5.09 55.99 16.77l-11.75 29.97c-13.5-8.66-30.17-14.7-46.03-14.7-10.78 0-17.97 5.09-17.97 11.68.3 21.26 79.94 9.58 80.84 61.38 0 28.14-23.96 47.9-58.09 47.9-25.16-.02-48.21-6.01-65.88-18.58" class="st0"/><path id="path205" d="M915.13 409.47c-6.27 11.08-18.16 18.56-31.8 18.56-20.17 0-36.53-16.35-36.53-36.53s16.35-36.53 36.53-36.53c13.64 0 25.53 7.48 31.8 18.56l34.96-19.37C937 330.8 912.01 315 883.33 315c-42.25 0-76.5 34.25-76.5 76.5s34.25 76.5 76.5 76.5c28.69 0 53.67-15.8 66.76-39.16z" class="st0"/><path id="rect207" class="st0" d="M571.09 251.32h43.72V465h-43.72z"/><path id="polygon209" class="st0" d="M1010.82 465.01v-64.03l51.8 64.03h55.87l-65.87-76.06 61.08-70.96h-53.48l-49.4 58.99V251.32H967.1v213.69z"/><path id="path211" d="M744.42 409.76c-6.29 10.48-19.46 18.26-34.13 18.26-20.17 0-36.53-16.35-36.53-36.53s16.36-36.53 36.53-36.53c14.67 0 27.84 8.08 34.13 18.86zm0-91.77v17.37C737.23 323.38 719.57 315 701 315c-38.33 0-68.57 33.83-68.57 76.35 0 42.52 30.24 76.65 68.57 76.65 18.56 0 36.23-8.38 43.41-20.36V465h43.71V317.99z" class="st0"/></g><g id="g219"><path id="path215" d="M159.51 409.5c0 14.91-12.09 27-27 27s-27-12.09-27-27 12.09-27 27-27h27z" class="st1"/><path id="path217" d="M173.01 409.5c0-14.91 12.09-27 27-27s27 12.09 27 27V477c0 14.91-12.09 27-27 27s-27-12.09-27-27z" class="st1"/></g><g id="g225"><path id="path221" d="M200.01 301.5c-14.91 0-27-12.09-27-27s12.09-27 27-27 27 12.09 27 27v27z" class="st2"/><path id="path223" d="M200.01 315c14.91 0 27 12.09 27 27s-12.09 27-27 27h-67.5c-14.91 0-27-12.09-27-27s12.09-27 27-27z" class="st2"/></g><g id="g231"><path id="path227" d="M308.01 342c0-14.91 12.09-27 27-27s27 12.09 27 27-12.09 27-27 27h-27z" class="st3"/><path id="path229" d="M294.51 342c0 14.91-12.09 27-27 27s-27-12.09-27-27v-67.5c0-14.91 12.09-27 27-27s27 12.09 27 27z" class="st3"/></g><g id="g237"><path id="path233" d="M267.51 450c14.91 0 27 12.09 27 27s-12.09 27-27 27-27-12.09-27-27v-27z" class="st4"/><path id="path235" d="M267.51 436.5c-14.91 0-27-12.09-27-27s12.09-27 27-27h67.5c14.91 0 27 12.09 27 27s-12.09 27-27 27z" class="st4"/></g></g></svg>